<?xml version="1.0" encoding="UTF-8"?>
<svg version="1.1" xmlns="http://www.w3.org/2000/svg" width="206" height="46">
<path d="M0 0 C0.72896484 -0.01224609 1.45792969 -0.02449219 2.20898438 -0.03710938 C6.0338391 -0.04762685 7.80606564 0.01654376 11.0625 2.1875 C11.0625 3.5075 11.0625 4.8275 11.0625 6.1875 C11.76117188 6.15269531 12.45984375 6.11789063 13.1796875 6.08203125 C14.08976562 6.05496094 14.99984375 6.02789063 15.9375 6 C16.84242187 5.96519531 17.74734375 5.93039063 18.6796875 5.89453125 C19.85917969 6.03955078 19.85917969 6.03955078 21.0625 6.1875 C23.19854308 9.39156462 23.30458908 10.18350747 23.2578125 13.85546875 C23.25136719 14.74814453 23.24492188 15.64082031 23.23828125 16.56054688 C23.22152344 17.48931641 23.20476563 18.41808594 23.1875 19.375 C23.17847656 20.31537109 23.16945312 21.25574219 23.16015625 22.22460938 C23.13659056 24.54582968 23.10369116 26.86653644 23.0625 29.1875 C21.4125 29.1875 19.7625 29.1875 18.0625 29.1875 C18.0625 24.8975 18.0625 20.6075 18.0625 16.1875 C4.8625 16.5175 -8.3375 16.8475 -21.9375 17.1875 C-21.9375 7.1875 -21.9375 7.1875 -20.9375 6.1875 C-19.25141034 6.11544489 -17.56249341 6.10363932 -15.875 6.125 C-14.95589844 6.13402344 -14.03679688 6.14304687 -13.08984375 6.15234375 C-12.37957031 6.16394531 -11.66929688 6.17554688 -10.9375 6.1875 C-10.81375 5.383125 -10.69 4.57875 -10.5625 3.75 C-10.35625 2.904375 -10.15 2.05875 -9.9375 1.1875 C-6.79347519 -0.3845124 -3.44802603 0.00303256 0 0 Z M-6.9375 4.1875 C-6.9375 4.8475 -6.9375 5.5075 -6.9375 6.1875 C-2.3175 6.1875 2.3025 6.1875 7.0625 6.1875 C7.0625 5.5275 7.0625 4.8675 7.0625 4.1875 C2.4425 4.1875 -2.1775 4.1875 -6.9375 4.1875 Z M-17.9375 9.1875 C-17.9375 10.5075 -17.9375 11.8275 -17.9375 13.1875 C-15.6275 13.1875 -13.3175 13.1875 -10.9375 13.1875 C-10.9375 11.8675 -10.9375 10.5475 -10.9375 9.1875 C-13.2475 9.1875 -15.5575 9.1875 -17.9375 9.1875 Z M-6.9375 9.1875 C-6.9375 10.5075 -6.9375 11.8275 -6.9375 13.1875 C-2.3175 13.1875 2.3025 13.1875 7.0625 13.1875 C7.0625 11.8675 7.0625 10.5475 7.0625 9.1875 C2.4425 9.1875 -2.1775 9.1875 -6.9375 9.1875 Z M11.0625 9.1875 C11.0625 10.5075 11.0625 11.8275 11.0625 13.1875 C13.3725 13.1875 15.6825 13.1875 18.0625 13.1875 C18.0625 11.8675 18.0625 10.5475 18.0625 9.1875 C15.7525 9.1875 13.4425 9.1875 11.0625 9.1875 Z " fill="#0B91F1" transform="translate(28.9375,3.8125)"/>
<path d="M0 0 C8.58 0 17.16 0 26 0 C26 2.97 26 5.94 26 9 C17.42 9 8.84 9 0 9 C0 6.03 0 3.06 0 0 Z " fill="#A8C8E6" transform="translate(16,24)"/>
<path d="M0 0 C1.65 0 3.3 0 5 0 C5 7.26 5 14.52 5 22 C-5.22580645 23.46082949 -5.22580645 23.46082949 -8.625 21.4375 C-10.30570289 18.45807215 -10.92996315 16.43180548 -11 13 C-9.86220128 10.67268444 -8.83159286 8.83159286 -7 7 C-4.66702567 6.95907063 -2.33294775 6.95758277 0 7 C0 4.69 0 2.38 0 0 Z M-4.5625 12.5 C-5.036875 12.995 -5.51125 13.49 -6 14 C-5.34 15.32 -4.68 16.64 -4 18 C-2.01508358 17.73323796 -2.01508358 17.73323796 0 17 C0.33 16.01 0.66 15.02 1 14 C0.02149805 12.97895449 -0.97980427 11.9793879 -2 11 C-3.24076302 10.88457803 -3.24076302 10.88457803 -4.5625 12.5 Z " fill="#000000" transform="translate(114,13)"/>
<path d="M0 0 C1.32 0 2.64 0 4 0 C4 4.29 4 8.58 4 13 C17.53 13 31.06 13 45 13 C40.87548809 17.12451191 40.27375865 17.45987191 34.83006287 17.50448608 C33.6283419 17.48292953 33.6283419 17.48292953 32.40234375 17.4609375 C31.57166885 17.46002106 30.74099396 17.45910461 29.88514709 17.4581604 C28.13260163 17.45212868 26.38006627 17.43639541 24.62768555 17.41162109 C21.94346201 17.37508116 19.26061832 17.37060205 16.57617188 17.37109375 C14.87238389 17.36126338 13.16860526 17.34960672 11.46484375 17.3359375 C10.66167221 17.33371185 9.85850067 17.33148621 9.0309906 17.32919312 C5.1796312 17.26346433 3.27692866 17.18461911 0 15 C-0.22137393 12.37302936 -0.28162025 9.99106036 -0.1875 7.375 C-0.17396484 6.66859375 -0.16042969 5.9621875 -0.14648438 5.234375 C-0.1111104 3.48925872 -0.05730221 1.74453392 0 0 Z " fill="#0B92F2" transform="translate(7,24)"/>
<path d="M0 0 C1.91015625 0.48828125 1.91015625 0.48828125 4.47265625 2.67578125 C5.91015625 5.48828125 5.91015625 5.48828125 5.72265625 8.05078125 C5.45453125 8.85515625 5.18640625 9.65953125 4.91015625 10.48828125 C4.78640625 11.21015625 4.66265625 11.93203125 4.53515625 12.67578125 C3.91015625 14.48828125 3.91015625 14.48828125 0.91015625 16.48828125 C-2.90277773 16.71890226 -6.14546012 16.28510494 -9.08984375 13.80078125 C-10.41496215 10.73644495 -10.56306859 8.80085515 -10.08984375 5.48828125 C-7.59979244 0.7156829 -5.15318866 -0.33712449 0 0 Z M-4.08984375 4.48828125 C-4.41984375 5.14828125 -4.74984375 5.80828125 -5.08984375 6.48828125 C-3.43984375 6.48828125 -1.78984375 6.48828125 -0.08984375 6.48828125 C-0.08984375 5.82828125 -0.08984375 5.16828125 -0.08984375 4.48828125 C-1.40984375 4.48828125 -2.72984375 4.48828125 -4.08984375 4.48828125 Z M-4.08984375 10.48828125 C-4.08984375 10.81828125 -4.08984375 11.14828125 -4.08984375 11.48828125 C-2.43984375 11.48828125 -0.78984375 11.48828125 0.91015625 11.48828125 C0.91015625 11.15828125 0.91015625 10.82828125 0.91015625 10.48828125 C-0.73984375 10.48828125 -2.38984375 10.48828125 -4.08984375 10.48828125 Z " fill="#000000" transform="translate(131.08984375,19.51171875)"/>
<path d="M0 0 C10.39851715 -0.36700649 10.39851715 -0.36700649 12.84375 1.125 C14.52442783 3.85042351 14.28970839 6.01903988 14.1875 9.1875 C14.16042969 10.27417969 14.13335937 11.36085938 14.10546875 12.48046875 C14.07066406 13.31191406 14.03585938 14.14335938 14 15 C12.35 15 10.7 15 9 15 C8.67 11.7 8.34 8.4 8 5 C7.34 5 6.68 5 6 5 C5.67 8.3 5.34 11.6 5 15 C3.35 15 1.7 15 0 15 C0 10.05 0 5.1 0 0 Z " fill="#000000" transform="translate(67,20)"/>
<path d="M0 0 C0.99 0 1.98 0 3 0 C3 2.64 3 5.28 3 8 C4.051875 7.7525 5.10375 7.505 6.1875 7.25 C10 7 10 7 12.9375 8.4375 C15.40822123 11.50718395 15.75746473 13.22828418 15.46875 17.08984375 C15 19 15 19 13.125 21.5625 C10 23 10 23 0 22 C0 14.74 0 7.48 0 0 Z M4.25 11.1875 C2.73010361 12.98654222 2.73010361 12.98654222 3.1875 15.5625 C3.84627033 18.14441272 3.84627033 18.14441272 6 20 C8.60280568 19.67958603 8.60280568 19.67958603 11 19 C11.76716851 16.14921909 11.76716851 16.14921909 12 13 C10.87359395 11.03959519 10.87359395 11.03959519 9 10 C6.0612603 9.71924929 6.0612603 9.71924929 4.25 11.1875 Z " fill="#000000" transform="translate(175,13)"/>
<path d="M0 0 C0.70125 0.01417969 1.4025 0.02835938 2.125 0.04296875 C3.176875 0.05263672 3.176875 0.05263672 4.25 0.0625 C6.125 0.23046875 6.125 0.23046875 8.125 1.23046875 C7.795 2.55046875 7.465 3.87046875 7.125 5.23046875 C5.805 5.23046875 4.485 5.23046875 3.125 5.23046875 C3.95 5.60171875 4.775 5.97296875 5.625 6.35546875 C8.125 8.23046875 8.125 8.23046875 8.625 11.29296875 C8.46 12.26234375 8.295 13.23171875 8.125 14.23046875 C4.63375983 16.5579622 3.23277749 16.73346191 -0.875 16.23046875 C-3.25 14.23046875 -3.25 14.23046875 -4.875 12.23046875 C-3.555 11.57046875 -2.235 10.91046875 -0.875 10.23046875 C-1.37 9.83859375 -1.865 9.44671875 -2.375 9.04296875 C-3.875 7.23046875 -3.875 7.23046875 -4.1875 4.66796875 C-3.80536201 1.68729241 -3.11165426 0.38247417 0 0 Z " fill="#000000" transform="translate(86.875,19.76953125)"/>
<path d="M0 0 C4.11289267 0.85685264 5.59686932 2.20235933 8 5.625 C8 9.14633145 7.69441423 11.46764294 5.875 14.5 C2.84264294 16.31941423 0.52133145 16.625 -3 16.625 C-6.42264067 14.22186932 -7.76814736 12.73789267 -8.625 8.625 C-7.58039389 3.61089068 -5.01410932 1.04460611 0 0 Z M-2 3.625 C-3.73647948 5.29988528 -3.73647948 5.29988528 -5 7.625 C-4.58612501 10.36803573 -4.58612501 10.36803573 -3 12.625 C-1.17576488 13.87274386 -1.17576488 13.87274386 1 13.625 C3.27144074 11.77067913 3.27144074 11.77067913 5 9.625 C4.37466625 7.10136012 4.37466625 7.10136012 3 4.625 C0.45224694 3.73113836 0.45224694 3.73113836 -2 3.625 Z " fill="#000000" transform="translate(165,19.375)"/>
<path d="M0 0 C1.65 0 3.3 0 5 0 C5 7.26 5 14.52 5 22 C3.35 22 1.7 22 0 22 C0 14.74 0 7.48 0 0 Z " fill="#000000" transform="translate(59,13)"/>
<path d="M0 0 C0 1.32 0 2.64 0 4 C-2.97 3.505 -2.97 3.505 -6 3 C-4.29293746 4.13804169 -2.5717615 5.2569431 -0.8125 6.3125 C1 8 1 8 1.4375 10.5625 C1.293125 11.366875 1.14875 12.17125 1 13 C-2 15 -2 15 -5.5625 14.8125 C-9 14 -9 14 -11 11 C-7.71023192 9.90341064 -6.28696233 10.20046862 -3 11 C-2.67 10.34 -2.34 9.68 -2 9 C-4.31 8.34 -6.62 7.68 -9 7 C-10.31236443 2.5856833 -10.31236443 2.5856833 -9 0.125 C-5.89740743 -1.62020832 -3.3726293 -0.69997967 0 0 Z " fill="#000000" transform="translate(202,21)"/>
<path d="M0 0 C3.63 0 7.26 0 11 0 C11 1.32 11 2.64 11 4 C9.35 4.66 7.7 5.32 6 6 C5.67 8.97 5.34 11.94 5 15 C3.35 15 1.7 15 0 15 C0 10.05 0 5.1 0 0 Z " fill="#000000" transform="translate(138,20)"/>
<path d="M0 0 C0.99 0 1.98 0 3 0 C3.08710289 3.10398978 3.14042309 6.20766548 3.1875 9.3125 C3.21263672 10.19357422 3.23777344 11.07464844 3.26367188 11.98242188 C3.27817383 13.25375977 3.27817383 13.25375977 3.29296875 14.55078125 C3.31653442 15.72120972 3.31653442 15.72120972 3.34057617 16.9152832 C3 19 3 19 1.6809082 20.79760742 C0 22 0 22 -3.1875 21.6875 C-4.115625 21.460625 -5.04375 21.23375 -6 21 C-6 20.01 -6 19.02 -6 18 C-4.02 18 -2.04 18 0 18 C0 12.06 0 6.12 0 0 Z " fill="#000000" transform="translate(152,20)"/>
<path d="M0 0 C1.65 0 3.3 0 5 0 C5 4.95 5 9.9 5 15 C3.35 15 1.7 15 0 15 C0 10.05 0 5.1 0 0 Z " fill="#000000" transform="translate(97,20)"/>
<path d="M0 0 C4.29 0 8.58 0 13 0 C13 2.97 13 5.94 13 9 C11.2063257 7.8782037 9.4151227 6.75245517 7.625 5.625 C6.12839844 4.68527344 6.12839844 4.68527344 4.6015625 3.7265625 C2 2 2 2 0 0 Z " fill="#FC830A" transform="translate(29,24)"/>
<path d="M0 0 C4.55671592 1.51890531 8.31723292 3.95402262 12 7 C12 7.33 12 7.66 12 8 C8.04 8 4.08 8 0 8 C0 5.36 0 2.72 0 0 Z " fill="#61B6F1" transform="translate(16,25)"/>
<path d="M0 0 C1.98 0.495 1.98 0.495 4 1 C3.67 2.65 3.34 4.3 3 6 C1.68 5.67 0.36 5.34 -1 5 C-0.67 3.35 -0.34 1.7 0 0 Z " fill="#000000" transform="translate(98,13)"/>
<path d="M0 0 C0.99 0.33 1.98 0.66 3 1 C3 1.99 3 2.98 3 4 C1.68 3.67 0.36 3.34 -1 3 C-0.67 2.01 -0.34 1.02 0 0 Z " fill="#000000" transform="translate(152,14)"/>
</svg>
